<svg width="197" height="48" viewBox="0 0 197 48" fill="none" xmlns="http://www.w3.org/2000/svg">
<path d="M47.44 40.148V19.124C47.44 18.572 47.452 18.164 47.476 17.9C47.524 17.636 47.632 17.336 47.8 17C48.136 16.352 48.94 16.028 50.212 16.028C51.484 16.028 52.336 16.196 52.768 16.532C53.224 16.844 53.488 17.312 53.56 17.936C54.472 16.688 55.9 16.064 57.844 16.064C59.812 16.064 61.672 16.988 63.424 18.836C65.176 20.684 66.052 22.832 66.052 25.28C66.052 27.728 65.176 29.876 63.424 31.724C61.696 33.572 59.848 34.496 57.88 34.496C55.912 34.496 54.484 33.944 53.596 32.84V40.112C53.596 40.664 53.572 41.072 53.524 41.336C53.5 41.6 53.392 41.9 53.2 42.236C53.032 42.596 52.732 42.848 52.3 42.992C51.868 43.136 51.28 43.208 50.536 43.208C49.792 43.208 49.192 43.136 48.736 42.992C48.304 42.848 47.992 42.608 47.8 42.272C47.632 41.936 47.524 41.636 47.476 41.372C47.452 41.108 47.44 40.7 47.44 40.148ZM54.568 23.192C54.016 23.84 53.74 24.548 53.74 25.316C53.74 26.084 54.016 26.792 54.568 27.44C55.144 28.064 55.864 28.376 56.728 28.376C57.616 28.376 58.36 28.064 58.96 27.44C59.584 26.816 59.896 26.108 59.896 25.316C59.896 24.524 59.608 23.816 59.032 23.192C58.456 22.544 57.7 22.22 56.764 22.22C55.852 22.22 55.12 22.544 54.568 23.192ZM81.2811 16.244C81.7371 16.388 82.1091 16.64 82.3971 17C82.7091 17.336 82.8651 17.888 82.8651 18.656C82.8651 19.424 82.6371 20.264 82.1811 21.176C81.7251 22.088 81.0651 22.544 80.2011 22.544C79.7691 22.544 79.3491 22.448 78.9411 22.256C78.5571 22.064 78.0411 21.968 77.3931 21.968C76.7451 21.968 76.1331 22.196 75.5571 22.652C75.0051 23.108 74.7291 23.66 74.7291 24.308V31.868C74.7291 32.42 74.7051 32.84 74.6571 33.128C74.6331 33.392 74.5251 33.704 74.3331 34.064C73.9731 34.688 73.0371 35 71.5251 35C70.3731 35 69.5451 34.796 69.0411 34.388C68.6571 34.052 68.4411 33.536 68.3931 32.84C68.3931 32.6 68.3931 32.252 68.3931 31.796V19.16C68.3931 18.608 68.4051 18.2 68.4291 17.936C68.4771 17.648 68.5851 17.336 68.7531 17C69.0891 16.352 70.0251 16.028 71.5611 16.028C73.0011 16.028 73.9011 16.304 74.2611 16.856C74.5251 17.24 74.6571 17.636 74.6571 18.044C74.7771 17.876 74.9451 17.672 75.1611 17.432C75.4011 17.192 75.8931 16.868 76.6371 16.46C77.3811 16.052 78.0291 15.848 78.5811 15.848C79.1571 15.848 79.6371 15.884 80.0211 15.956C80.4051 16.004 80.8251 16.1 81.2811 16.244ZM83.2164 25.532C83.2164 22.652 84.2244 20.276 86.2404 18.404C88.2564 16.532 90.5604 15.596 93.1524 15.596C95.7444 15.596 98.0364 16.532 100.028 18.404C102.02 20.252 103.016 22.616 103.016 25.496C103.016 27.488 102.5 29.264 101.468 30.824C100.436 32.36 99.1764 33.5 97.6884 34.244C96.2244 34.964 94.7004 35.324 93.1164 35.324C91.5324 35.324 89.9964 34.94 88.5084 34.172C87.0204 33.38 85.7604 32.228 84.7284 30.716C83.7204 29.18 83.2164 27.452 83.2164 25.532ZM90.7404 28.124C91.5084 28.7 92.2884 28.988 93.0804 28.988C93.8724 28.988 94.6644 28.688 95.4564 28.088C96.2484 27.488 96.6444 26.6 96.6444 25.424C96.6444 24.248 96.2724 23.372 95.5284 22.796C94.7844 22.22 93.9804 21.932 93.1164 21.932C92.2524 21.932 91.4484 22.232 90.7044 22.832C89.9604 23.432 89.5884 24.32 89.5884 25.496C89.5884 26.648 89.9724 27.524 90.7404 28.124ZM117.366 32.624C116.454 33.824 115.002 34.424 113.01 34.424C111.018 34.424 109.146 33.512 107.394 31.688C105.666 29.84 104.802 27.692 104.802 25.244C104.802 22.796 105.678 20.648 107.43 18.8C109.182 16.952 111.102 16.028 113.19 16.028C114.006 16.028 114.75 16.184 115.422 16.496C116.094 16.784 116.55 17.06 116.79 17.324C117.054 17.564 117.258 17.792 117.402 18.008C117.474 17.336 117.714 16.832 118.122 16.496C118.554 16.136 119.238 15.956 120.174 15.956C121.11 15.956 121.794 16.028 122.226 16.172C122.658 16.316 122.958 16.568 123.126 16.928C123.318 17.264 123.426 17.564 123.45 17.828C123.498 18.092 123.522 18.5 123.522 19.052V33.956C123.522 36.716 122.562 38.936 120.642 40.616C118.722 42.32 116.562 43.172 114.162 43.172C112.338 43.172 110.598 42.728 108.942 41.84C107.286 40.952 106.458 40.148 106.458 39.428C106.458 38.492 106.818 37.664 107.538 36.944C107.994 36.44 108.342 36.092 108.582 35.9C108.846 35.708 109.146 35.612 109.482 35.612C109.818 35.612 110.166 35.756 110.526 36.044C111.678 36.932 112.926 37.376 114.27 37.376C115.182 37.376 115.926 37.016 116.502 36.296C117.078 35.576 117.366 34.712 117.366 33.704V32.624ZM110.958 25.28C110.958 26.048 111.258 26.744 111.858 27.368C112.482 27.992 113.226 28.304 114.09 28.304C114.978 28.304 115.71 27.992 116.286 27.368C116.862 26.72 117.15 26.024 117.15 25.28C117.15 24.512 116.874 23.804 116.322 23.156C115.77 22.484 115.026 22.148 114.09 22.148C113.154 22.148 112.398 22.472 111.822 23.12C111.246 23.768 110.958 24.488 110.958 25.28ZM139.289 16.244C139.745 16.388 140.117 16.64 140.405 17C140.717 17.336 140.873 17.888 140.873 18.656C140.873 19.424 140.645 20.264 140.189 21.176C139.733 22.088 139.073 22.544 138.209 22.544C137.777 22.544 137.357 22.448 136.949 22.256C136.565 22.064 136.049 21.968 135.401 21.968C134.753 21.968 134.141 22.196 133.565 22.652C133.013 23.108 132.737 23.66 132.737 24.308V31.868C132.737 32.42 132.713 32.84 132.665 33.128C132.641 33.392 132.533 33.704 132.341 34.064C131.981 34.688 131.045 35 129.533 35C128.381 35 127.553 34.796 127.049 34.388C126.665 34.052 126.449 33.536 126.401 32.84C126.401 32.6 126.401 32.252 126.401 31.796V19.16C126.401 18.608 126.413 18.2 126.437 17.936C126.485 17.648 126.593 17.336 126.761 17C127.097 16.352 128.033 16.028 129.569 16.028C131.009 16.028 131.909 16.304 132.269 16.856C132.533 17.24 132.665 17.636 132.665 18.044C132.785 17.876 132.953 17.672 133.169 17.432C133.409 17.192 133.901 16.868 134.645 16.46C135.389 16.052 136.037 15.848 136.589 15.848C137.165 15.848 137.645 15.884 138.029 15.956C138.413 16.004 138.833 16.1 139.289 16.244ZM160.052 23.264C160.052 24.728 159.68 25.82 158.936 26.54C158.216 27.236 157.412 27.584 156.524 27.584H147.992C147.992 28.256 148.388 28.82 149.18 29.276C149.972 29.732 150.764 29.96 151.556 29.96C152.948 29.96 154.04 29.816 154.832 29.528L155.228 29.384C155.804 29.12 156.284 28.988 156.668 28.988C157.436 28.988 158.096 29.528 158.648 30.608C158.96 31.256 159.116 31.808 159.116 32.264C159.116 34.4 156.56 35.468 151.448 35.468C149.672 35.468 148.088 35.168 146.696 34.568C145.328 33.944 144.26 33.128 143.492 32.12C141.98 30.176 141.224 28.004 141.224 25.604C141.224 22.58 142.196 20.168 144.14 18.368C146.108 16.544 148.556 15.632 151.484 15.632C154.82 15.632 157.268 16.808 158.828 19.16C159.644 20.408 160.052 21.776 160.052 23.264ZM152.456 24.308C153.368 24.308 153.824 23.924 153.824 23.156C153.824 22.604 153.608 22.16 153.176 21.824C152.768 21.488 152.168 21.32 151.376 21.32C150.608 21.32 149.84 21.644 149.072 22.292C148.304 22.916 147.92 23.588 147.92 24.308H152.456ZM162.545 33.308C162.089 33.02 161.861 32.564 161.861 31.94C161.861 31.316 162.317 30.368 163.229 29.096C163.493 28.688 163.913 28.484 164.489 28.484C165.089 28.484 165.893 28.784 166.901 29.384C167.909 29.96 168.821 30.248 169.637 30.248C171.101 30.248 171.833 29.96 171.833 29.384C171.833 28.928 171.029 28.592 169.421 28.376C167.909 28.16 166.409 27.596 164.921 26.684C164.225 26.252 163.649 25.58 163.193 24.668C162.737 23.732 162.509 22.628 162.509 21.356C162.509 17.564 165.113 15.668 170.321 15.668C172.025 15.668 173.777 16.076 175.577 16.892C176.417 17.276 176.837 17.756 176.837 18.332C176.837 18.908 176.573 19.616 176.045 20.456C175.517 21.296 174.977 21.716 174.425 21.716C174.137 21.716 173.597 21.536 172.805 21.176C172.037 20.816 171.197 20.636 170.285 20.636C168.869 20.636 168.161 20.9 168.161 21.428C168.161 22.148 168.977 22.616 170.609 22.832C172.193 23 173.729 23.456 175.217 24.2C175.913 24.536 176.489 25.124 176.945 25.964C177.425 26.78 177.665 27.812 177.665 29.06C177.665 30.308 177.425 31.376 176.945 32.264C176.489 33.128 175.841 33.776 175.001 34.208C173.465 34.952 171.533 35.324 169.205 35.324C166.901 35.324 164.681 34.652 162.545 33.308ZM180.158 33.308C179.702 33.02 179.474 32.564 179.474 31.94C179.474 31.316 179.93 30.368 180.842 29.096C181.106 28.688 181.526 28.484 182.102 28.484C182.702 28.484 183.506 28.784 184.514 29.384C185.522 29.96 186.434 30.248 187.25 30.248C188.714 30.248 189.446 29.96 189.446 29.384C189.446 28.928 188.642 28.592 187.034 28.376C185.522 28.16 184.022 27.596 182.534 26.684C181.838 26.252 181.262 25.58 180.806 24.668C180.35 23.732 180.122 22.628 180.122 21.356C180.122 17.564 182.726 15.668 187.934 15.668C189.638 15.668 191.39 16.076 193.19 16.892C194.03 17.276 194.45 17.756 194.45 18.332C194.45 18.908 194.186 19.616 193.658 20.456C193.13 21.296 192.59 21.716 192.038 21.716C191.75 21.716 191.21 21.536 190.418 21.176C189.65 20.816 188.81 20.636 187.898 20.636C186.482 20.636 185.774 20.9 185.774 21.428C185.774 22.148 186.59 22.616 188.222 22.832C189.806 23 191.342 23.456 192.83 24.2C193.526 24.536 194.102 25.124 194.558 25.964C195.038 26.78 195.278 27.812 195.278 29.06C195.278 30.308 195.038 31.376 194.558 32.264C194.102 33.128 193.454 33.776 192.614 34.208C191.078 34.952 189.146 35.324 186.818 35.324C184.514 35.324 182.294 34.652 180.158 33.308Z" fill="#625D5D"/>
<rect y="6" width="40" height="40" rx="2" fill="#94E2F3"/>
<path d="M12.812 33.672H22.604C23.396 33.672 23.972 33.768 24.332 33.96C24.692 34.128 24.932 34.404 25.052 34.788C25.172 35.172 25.232 35.688 25.232 36.336C25.232 36.96 25.172 37.464 25.052 37.848C24.932 38.232 24.728 38.496 24.44 38.64C23.984 38.88 23.36 39 22.568 39H9.608C7.928 39 6.944 38.544 6.656 37.632C6.512 37.248 6.44 36.636 6.44 35.796V15.78C6.44 15.228 6.452 14.82 6.476 14.556C6.524 14.268 6.644 13.944 6.836 13.584C7.172 12.936 8.108 12.612 9.644 12.612C11.324 12.612 12.32 13.056 12.632 13.944C12.752 14.352 12.812 14.976 12.812 15.816V33.672ZM33.1489 13.368C33.5569 13.776 33.7609 14.472 33.7609 15.456V16.032C33.7609 16.632 33.7369 17.076 33.6889 17.364C33.5209 19.476 32.8969 21.288 31.8169 22.8C30.7369 24.312 29.3689 25.068 27.7129 25.068C27.5449 25.068 27.3889 24.948 27.2449 24.708C27.1249 24.444 27.0649 24.108 27.0649 23.7C27.0649 23.292 27.1129 22.98 27.2089 22.764C27.3289 22.524 27.4489 22.392 27.5689 22.368C27.7129 22.32 27.8209 22.296 27.8929 22.296C27.9649 22.272 28.0969 22.212 28.2889 22.116C28.4809 21.996 28.6489 21.84 28.7929 21.648C29.1769 21.144 29.3929 20.364 29.4409 19.308C28.6249 19.188 28.0129 18.924 27.6049 18.516C27.2209 18.108 27.0289 17.244 27.0289 15.924C27.0289 14.964 27.1489 14.256 27.3889 13.8C27.6289 13.32 27.9889 13.008 28.4689 12.864C28.9729 12.696 29.7409 12.612 30.7729 12.612C31.8049 12.612 32.5969 12.864 33.1489 13.368Z" fill="white"/>
</svg>
