<svg width="374" height="275" viewBox="0 0 374 275" fill="none" xmlns="http://www.w3.org/2000/svg">
<g clip-path="url(#clip0_17_6)">
<path opacity="0.1" d="M27.0477 110.355C34.9181 128.159 24.8762 148.668 13.0745 164.127C9.11662 169.301 4.76603 174.718 4.21087 181.232C3.54998 189.175 8.92024 196.479 15.2951 201.252C26.9155 209.952 42.7922 212.641 56.6219 208.254C68.5747 204.471 78.6242 195.896 90.6789 192.439C110.853 186.656 132.221 196.244 149.484 208.186C161.701 216.636 174.787 226.909 189.515 225.105C199.886 223.834 208.685 216.545 214.652 207.959C217.533 203.798 220.041 199.172 224.241 196.373C226.737 194.709 229.668 193.827 232.602 193.199C259.378 187.469 287.789 201.457 314.21 194.262C332.054 189.402 346.284 175.274 355.129 159.013C363.973 142.752 368.105 124.384 371.545 106.186C373.989 93.2541 376.017 79.3004 370.412 67.4006C364.468 54.8124 350.71 47.1831 336.884 45.7571C323.058 44.3311 309.187 48.2838 296.448 53.8592C280.53 60.8304 264.929 70.5893 247.553 70.6233C235.721 70.646 224.441 66.0843 213.126 62.6309C194.175 56.8323 174.537 53.95 154.926 51.2909C136.16 48.7453 117.213 46.3736 98.334 47.8866C84.9763 48.9495 73.1821 54.0635 60.221 56.4275C51.7728 57.9708 43.2831 56.8058 34.9936 59.4195C24.7969 62.6157 14.283 70.0332 13.7202 81.7023C13.1877 92.7964 22.8708 100.902 27.0477 110.355Z" fill="#94E2F3"/>
<g opacity="0.5">
<path opacity="0.5" d="M263.562 69.2805C261.674 69.8252 259.329 71.2322 258.181 75.0942C255.915 82.6592 261.156 87.8337 259.438 95.69C258.968 97.7788 258.068 99.7461 256.795 101.466C254.691 104.322 252.402 105.676 250.189 107.677C247.376 110.232 245.361 113.548 244.385 117.224C243.315 121.281 243.226 125.535 244.124 129.634C244.913 133.061 246.258 135.554 247.429 138.334C248.886 141.881 250.024 145.553 250.828 149.303C251.274 151.126 251.527 152.991 251.583 154.867C251.621 157.224 251.254 159.785 250.896 162.311L247.697 184.67C247.27 187.647 246.84 190.673 246.824 193.506C246.802 196.778 247.327 199.588 247.848 202.33C248.981 208.246 250.178 214.385 252.757 217.506C255.337 220.626 259.71 219.545 262.403 213.175C264.963 207.123 265.016 199.028 267.274 192.553C270.832 182.34 277.909 180.978 281.833 171.246C285.61 161.91 284.446 150.442 286.365 139.805C287.732 132.176 290.644 125.216 292.37 117.678C294.851 106.818 294.605 95.5462 292.623 87.202C290.64 78.8578 287.083 73.1273 283.155 68.7812C281.489 66.9391 279.711 65.3013 277.618 65.1386C275.394 64.9684 273.464 67.7864 271.255 68.6147C268.694 69.5717 266.142 68.5467 263.562 69.2805Z" fill="#94E2F3"/>
<path opacity="0.5" d="M275.606 65.6682C275.606 65.6682 271.829 162.228 255.994 219.17" stroke="#535461" stroke-width="2" stroke-miterlimit="10"/>
<path opacity="0.5" d="M258.082 75.567C258.082 75.567 274.994 91.0034 271.803 120.416" stroke="#535461" stroke-width="2" stroke-miterlimit="10"/>
<path opacity="0.5" d="M243.875 119.49C243.875 119.49 271.67 125.088 269.608 141.738" stroke="#535461" stroke-width="2" stroke-miterlimit="10"/>
<path opacity="0.5" d="M292.657 86.9713C292.657 86.9713 281.414 96.8323 271.391 124.762" stroke="#535461" stroke-width="2" stroke-miterlimit="10"/>
<path opacity="0.5" d="M281.663 171.386C281.663 171.386 273.989 177.438 267.83 156.327" stroke="#535461" stroke-width="2" stroke-miterlimit="10"/>
<path opacity="0.5" d="M248.558 183.698C248.558 183.698 264.208 181.651 265.651 171.832" stroke="#535461" stroke-width="2" stroke-miterlimit="10"/>
</g>
<path d="M301.392 4.51633C297.517 5.09127 292.857 6.88797 290.942 12.4369C287.184 23.3154 298.612 31.5499 295.98 42.9164C295.191 46.3207 293.246 49.0895 291.195 51.1093C287.177 55.0658 282.604 56.7831 278.26 59.4687C273.917 62.1543 269.408 66.368 267.373 72.8399C265.413 79.0659 266.262 85.9463 268.298 91.0867C270.333 96.2271 273.415 100.059 276.168 104.288C279.521 109.494 282.324 115.035 284.533 120.821C285.519 123.367 286.422 126.052 286.743 129.101C287.098 132.577 286.648 136.318 286.203 139.979L282.23 172.509C281.701 176.84 281.168 181.247 281.474 185.419C281.818 190.234 283.238 194.432 284.639 198.533C287.66 207.376 290.893 216.564 296.584 221.462C302.276 226.361 311.218 225.29 316.03 216.227C320.611 207.599 319.769 195.703 323.674 186.436C329.829 171.832 344.312 170.652 351.28 156.789C357.968 143.49 354.226 126.476 356.911 111.021C358.837 99.9453 364.045 90.0465 366.73 79.1491C370.582 63.4479 368.743 46.8237 363.645 34.2998C358.546 21.7759 350.51 12.9135 341.869 6.04825C338.206 3.1395 334.316 0.510652 329.98 0.0264907C325.358 -0.487931 321.672 3.40806 317.219 4.38773C312.046 5.54896 306.645 3.73713 301.392 4.51633Z" fill="#94E2F3"/>
<path d="M325.887 0.620361C325.887 0.620361 329.531 142.374 303.469 224.345" stroke="#535461" stroke-width="2" stroke-miterlimit="10"/>
<path d="M290.791 13.1177C290.791 13.1177 327.658 37.8629 324.501 80.7944" stroke="#535461" stroke-width="2" stroke-miterlimit="10"/>
<path d="M266.591 76.1155C266.591 76.1155 324.78 87.6597 322.484 111.932" stroke="#535461" stroke-width="2" stroke-miterlimit="10"/>
<path d="M363.698 34.0199C363.698 34.0199 341.582 47.2057 324.161 87.1453" stroke="#535461" stroke-width="2" stroke-miterlimit="10"/>
<path d="M350.94 157.023C350.94 157.023 335.774 165.02 320.528 133.194" stroke="#535461" stroke-width="2" stroke-miterlimit="10"/>
<path d="M283.857 171.227C283.857 171.227 316.007 170.069 317.846 155.786" stroke="#535461" stroke-width="2" stroke-miterlimit="10"/>
<path opacity="0.1" d="M184.375 236.706C273.576 236.706 345.887 229.749 345.887 221.167C345.887 212.586 273.576 205.629 184.375 205.629C95.1747 205.629 22.8633 212.586 22.8633 221.167C22.8633 229.749 95.1747 236.706 184.375 236.706Z" fill="#94E2F3"/>
<path d="M25.3974 202.671C25.3974 202.671 28.5621 206.832 23.9358 213.073C19.3095 219.314 15.4952 224.617 17.0549 228.517C17.0549 228.517 24.034 216.893 29.714 216.73C35.3939 216.568 31.6476 209.661 25.3974 202.671Z" fill="#94E2F3"/>
<path opacity="0.1" d="M25.3973 202.671C25.6731 203.072 25.8906 203.51 26.0431 203.972C31.5871 210.493 34.5366 216.579 29.2117 216.734C24.2493 216.878 18.2974 225.763 16.8699 228.01C16.917 228.183 16.9737 228.354 17.0398 228.52C17.0398 228.52 24.0189 216.897 29.6988 216.734C35.3788 216.571 31.6475 209.661 25.3973 202.671Z" fill="black"/>
<path d="M31.2812 207.955C31.2812 209.415 31.1188 210.603 30.9036 210.603C30.6883 210.603 30.5259 209.419 30.5259 207.955C30.5259 206.491 30.7298 207.198 30.93 207.198C31.1302 207.198 31.2812 206.495 31.2812 207.955Z" fill="#FFD037"/>
<path d="M33.2941 209.695C32.0139 210.395 30.8998 210.83 30.8054 210.637C30.711 210.444 31.6664 209.748 32.9467 209.052C34.2269 208.356 33.7209 208.863 33.8191 209.052C33.9173 209.241 34.5782 208.991 33.2941 209.695Z" fill="#FFD037"/>
<path d="M8.67854 202.671C8.67854 202.671 5.51378 206.832 10.1401 213.073C14.7663 219.314 18.5656 224.617 17.0549 228.517C17.0549 228.517 10.0759 216.893 4.39592 216.73C-1.28402 216.568 2.43211 209.661 8.67854 202.671Z" fill="#94E2F3"/>
<path opacity="0.1" d="M8.67854 202.671C8.40276 203.072 8.18532 203.51 8.03275 203.972C2.48876 210.493 -0.460727 216.579 4.86422 216.734C9.82661 216.878 15.7785 225.763 17.206 228.01C17.1589 228.183 17.1022 228.354 17.0361 228.52C17.0361 228.52 10.057 216.897 4.37704 216.734C-1.3029 216.571 2.43211 209.661 8.67854 202.671Z" fill="black"/>
<path d="M2.79843 207.955C2.79843 209.415 2.96082 210.603 3.17609 210.603C3.39135 210.603 3.55374 209.419 3.55374 207.955C3.55374 206.491 3.34981 207.198 3.14965 207.198C2.94949 207.198 2.79843 206.495 2.79843 207.955Z" fill="#FFD037"/>
<path d="M0.777979 209.695C2.05823 210.395 3.17232 210.83 3.26673 210.637C3.36114 210.444 2.40567 209.748 1.12542 209.052C-0.154831 208.356 0.351229 208.863 0.253038 209.052C0.154848 209.241 -0.502274 208.991 0.777979 209.695Z" fill="#FFD037"/>
<path d="M3.80301 227.976C3.80301 227.976 12.6515 227.703 15.3177 225.801C17.984 223.898 28.9133 221.64 29.5893 224.666C30.2654 227.692 42.8866 239.838 32.8976 239.917C22.9086 239.997 9.68689 238.359 7.02441 236.736C4.36194 235.113 3.80301 227.976 3.80301 227.976Z" fill="#A8A8A8"/>
<path opacity="0.2" d="M33.0789 238.873C23.0899 238.953 9.86814 237.315 7.20566 235.692C5.17765 234.455 4.36947 230.018 4.10133 227.972H3.80676C3.80676 227.972 4.36569 235.121 7.02817 236.744C9.69064 238.366 22.9124 240.008 32.9165 239.929C35.8018 239.906 36.795 238.877 36.7421 237.356C36.3154 238.276 35.2239 238.851 33.0789 238.873Z" fill="black"/>
<path d="M118.973 170.572C118.973 170.572 163.253 142.238 193.866 142.238C193.866 142.238 230.721 136.488 270.809 146.205C310.898 155.923 325.705 168.522 336.82 164.823L290.126 166.192L118.973 170.572Z" fill="#8CD0F3"/>
<path opacity="0.1" d="M118.973 170.572C118.973 170.572 163.253 142.238 193.866 142.238C193.866 142.238 230.721 136.488 270.809 146.205C310.898 155.923 325.705 168.522 336.82 164.823L290.126 166.192L118.973 170.572Z" fill="#8CD0F3"/>
<path d="M327.684 213.939H57.6302L65.055 184.144L110.978 171.915L327.684 177.619V213.939Z" fill="#121C3F"/>
<path d="M341.899 195.321V204.831C341.899 204.831 333.882 210.656 333.153 215.217C333.153 215.217 321.672 218.137 318.394 218.137C318.096 218.137 317.771 218.137 317.431 218.171C317.943 216.795 318.343 215.38 318.628 213.939C319.432 209.896 319.331 205.724 318.332 201.725C317.332 197.726 315.46 193.998 312.849 190.811C310.238 187.624 306.954 185.056 303.233 183.293C299.512 181.53 295.447 180.616 291.331 180.616C287.215 180.616 283.15 181.53 279.429 183.293C275.708 185.056 272.424 187.624 269.813 190.811C267.203 193.998 265.33 197.726 264.331 201.725C263.331 205.724 263.23 209.896 264.034 213.939C264.421 215.888 265.014 217.79 265.805 219.613H250.238C250.238 219.613 250.095 219.662 249.861 219.764C249.026 220.142 247.059 221.141 246.775 222.711H117.764L115.121 222.688C115.683 221.743 116.187 220.766 116.631 219.76C117.46 217.898 118.076 215.947 118.467 213.946C119.235 210.125 119.195 206.185 118.349 202.38C117.503 198.575 115.871 194.99 113.558 191.856C111.244 188.721 108.3 186.107 104.916 184.182C101.532 182.257 97.783 181.063 93.9102 180.678C90.0374 180.293 86.127 180.725 82.4311 181.947C78.7352 183.168 75.3358 185.151 72.4521 187.769C69.5684 190.386 67.2643 193.58 65.6884 197.144C64.1126 200.709 63.2998 204.564 63.3026 208.462C63.3025 210.299 63.4822 212.133 63.8389 213.935C64.4475 216.987 65.5633 219.915 67.1396 222.597C65.2967 222.147 61.2746 220.868 61.2746 220.868C61.2746 220.868 44.1479 219.045 39.7747 215.195L40.4356 214.737L43.2378 212.819L41.9613 207.902C41.8072 207.695 41.6803 207.468 41.5837 207.229C41.2438 206.408 40.9454 204.884 42.1464 202.97C43.9667 200.049 43.0565 189.648 43.0565 189.648C43.0565 189.648 67.8383 172.494 116.673 168.658C116.673 168.658 117.84 169.566 120.249 169.755C121.881 169.888 124.083 169.687 126.881 168.658C126.881 168.658 130.888 170.482 148.03 160.628C148.03 160.628 177.188 140.551 215.456 142.381C215.456 142.381 254.816 140.006 288.344 152.972C302.793 158.555 313.787 161.532 321.623 163.106C328.859 164.562 333.402 164.831 335.483 164.853H335.528C336.208 164.853 336.612 164.853 336.756 164.853H336.816C336.816 164.853 336.816 169.199 337.046 174.332V174.359C337.129 176.144 337.243 178.024 337.401 179.851V179.964C337.839 185.052 338.595 189.674 339.905 190.589L341.899 195.321Z" fill="#2856B8"/>
<path d="M46.9955 189.232C46.9955 189.232 57.9739 180.653 71.6413 182.48C71.6413 182.48 59.2051 192.337 53.6007 191.698L52.6452 190.877L46.9804 191.195C46.9804 191.195 46.1344 189.871 46.9955 189.232Z" fill="#8CD0F3"/>
<path opacity="0.2" d="M57.6529 204.074V209.139C57.6529 209.139 57.2753 213.977 52.9134 214.158L40.4507 214.775L43.2491 212.857L41.9727 207.94C41.8179 207.734 41.6909 207.509 41.595 207.27C42.728 206.226 45.398 204.464 50.8287 204.085L57.6529 204.074Z" fill="white"/>
<path opacity="0.2" d="M115.646 182.847L125.212 182.468C125.212 182.468 121.341 185.525 118.607 185.801C115.872 186.077 115.646 182.847 115.646 182.847Z" fill="white"/>
<path opacity="0.2" d="M135.782 211.912C135.782 211.912 222.292 199.864 243.203 203.696C243.203 203.696 249.351 204.108 251.677 206.571C254.004 209.033 251.677 207.437 251.677 207.437L135.782 211.912Z" fill="white"/>
<path opacity="0.5" d="M184.209 178.1C184.209 178.1 185.304 176.046 187.079 176L198.605 175.406C198.605 175.406 198.424 177.003 196.373 177.597L184.209 178.1Z" fill="#18218A"/>
<path opacity="0.5" d="M250.903 174.631C250.903 174.631 251.998 172.577 253.773 172.532L265.299 171.923C265.299 171.923 265.118 173.519 263.067 174.113L250.903 174.631Z" fill="#18218A"/>
<path d="M211.548 146.489L202.703 169.721L170.814 169.755H162.603H155.462H149.287H142.293C142.293 169.755 146.553 166.623 153.415 162.633C155.681 161.309 158.253 159.894 161.044 158.472C163.612 157.156 166.376 155.824 169.28 154.561C171.546 153.562 173.933 152.602 176.373 151.705C187.434 147.654 199.867 144.934 211.548 146.489Z" fill="#8CD0F3"/>
<path d="M261.655 163.454C261.655 163.454 248.331 165.432 235.616 166.896C230.755 167.456 225.985 167.94 222.08 168.208L221.537 168.246C220.026 168.344 218.625 168.409 217.435 168.431C215.547 168.466 214.135 168.382 213.428 168.155L217.103 145.933C217.103 145.933 221.635 145.982 228.338 146.311L229.804 146.391C231.197 146.47 232.666 146.561 234.199 146.667C236.39 146.818 238.697 147 241.077 147.219C252.565 148.274 265.579 150.17 273.819 153.581C291.354 160.851 261.655 163.454 261.655 163.454Z" fill="#8CD0F3"/>
<path d="M323.062 174.631V180.562C323.062 180.562 313.496 180.698 315.546 178.784C316.874 177.513 318.079 176.12 319.146 174.623L323.062 174.631Z" fill="#8CD0F3"/>
<path d="M337.394 179.957L329.625 180.566V173.436C329.625 173.436 333.224 168.371 336.824 173.984L337.031 174.313L337.394 179.957Z" fill="#8CD0F3"/>
<path d="M91.1623 230.729C103.441 230.729 113.395 220.76 113.395 208.462C113.395 196.164 103.441 186.194 91.1623 186.194C78.8836 186.194 68.9297 196.164 68.9297 208.462C68.9297 220.76 78.8836 230.729 91.1623 230.729Z" fill="#182A7C"/>
<path d="M108.995 208.443C109.003 213.038 107.249 217.46 104.095 220.797C100.94 224.133 96.6271 226.129 92.0458 226.371C87.4645 226.613 82.9653 225.084 79.4776 222.099C75.9899 219.114 73.7802 214.901 73.3049 210.331C72.8296 205.761 74.125 201.183 76.9236 197.542C79.7222 193.901 83.8101 191.476 88.3429 190.767C92.8757 190.059 97.507 191.121 101.28 193.735C105.053 196.348 107.68 200.314 108.618 204.812C108.866 206.006 108.993 207.223 108.995 208.443Z" fill="#3F8FFE"/>
<path opacity="0.5" d="M91.1359 223.83C99.6019 223.83 106.465 216.939 106.465 208.439C106.465 199.939 99.6019 193.048 91.1359 193.048C82.6699 193.048 75.8068 199.939 75.8068 208.439C75.8068 216.939 82.6699 223.83 91.1359 223.83Z" fill="#18218A"/>
<path d="M96.2644 191.259V191.91L91.1623 208.829L87.0685 190.979C90.106 190.27 93.2756 190.366 96.2644 191.259Z" fill="#3F8FFE"/>
<path d="M96.2267 225.634C93.3043 226.501 90.2096 226.608 87.2347 225.945L91.1585 208.829L96.2267 225.634Z" fill="#3F8FFE"/>
<path d="M108.995 208.443C108.998 210.309 108.71 212.165 108.142 213.943H108.07L91.1774 208.833L108.648 204.815C108.885 206.01 109.002 207.225 108.995 208.443Z" fill="#3F8FFE"/>
<path d="M91.1623 208.829L74.2698 213.939H74.1376C73.1968 210.985 73.029 207.838 73.6504 204.8L91.1623 208.829Z" fill="#3F8FFE"/>
<path d="M91.1359 210.402C92.2184 210.402 93.0959 209.523 93.0959 208.439C93.0959 207.355 92.2184 206.476 91.1359 206.476C90.0534 206.476 89.1758 207.355 89.1758 208.439C89.1758 209.523 90.0534 210.402 91.1359 210.402Z" fill="#182A7C"/>
<path d="M291.195 230.729C303.474 230.729 313.428 220.76 313.428 208.462C313.428 196.164 303.474 186.194 291.195 186.194C278.916 186.194 268.963 196.164 268.963 208.462C268.963 220.76 278.916 230.729 291.195 230.729Z" fill="#182A7C"/>
<path d="M309.032 208.443C309.04 213.038 307.286 217.46 304.131 220.797C300.977 224.133 296.664 226.129 292.082 226.371C287.501 226.613 283.002 225.084 279.514 222.099C276.027 219.114 273.817 214.901 273.342 210.331C272.866 205.761 274.162 201.183 276.96 197.542C279.759 193.901 283.847 191.476 288.38 190.767C292.912 190.059 297.544 191.121 301.317 193.735C305.09 196.348 307.717 200.314 308.654 204.812C308.903 206.006 309.029 207.223 309.032 208.443Z" fill="#3F8FFE"/>
<path opacity="0.5" d="M291.173 223.83C299.639 223.83 306.502 216.939 306.502 208.439C306.502 199.939 299.639 193.048 291.173 193.048C282.707 193.048 275.844 199.939 275.844 208.439C275.844 216.939 282.707 223.83 291.173 223.83Z" fill="#18218A"/>
<path d="M296.297 191.259V191.91L291.195 208.829L287.101 190.979C290.139 190.27 293.308 190.366 296.297 191.259Z" fill="#3F8FFE"/>
<path d="M296.263 225.634C293.341 226.501 290.246 226.608 287.271 225.945L291.195 208.829L296.263 225.634Z" fill="#3F8FFE"/>
<path d="M309.032 208.443C309.034 210.309 308.747 212.165 308.178 213.943H308.092L291.195 208.829L308.666 204.812C308.91 206.007 309.033 207.223 309.032 208.443Z" fill="#3F8FFE"/>
<path d="M291.195 208.829L274.303 213.939H274.17C273.23 210.985 273.062 207.838 273.683 204.8L291.195 208.829Z" fill="#3F8FFE"/>
<path d="M291.173 210.402C292.255 210.402 293.133 209.523 293.133 208.439C293.133 207.355 292.255 206.476 291.173 206.476C290.09 206.476 289.213 207.355 289.213 208.439C289.213 209.523 290.09 210.402 291.173 210.402Z" fill="#182A7C"/>
<path opacity="0.2" d="M161.048 158.495L155.462 169.771H149.287L153.415 162.656C155.692 161.332 158.257 159.921 161.048 158.495Z" fill="white"/>
<path opacity="0.2" d="M176.373 151.728L170.81 169.759H162.6L169.284 154.576C171.565 153.585 173.937 152.632 176.373 151.728Z" fill="white"/>
<path opacity="0.2" d="M234.207 146.686L222.088 168.212L221.544 168.25C220.034 168.348 218.632 168.413 217.443 168.435L228.346 146.334L229.811 146.413C231.186 146.489 232.666 146.58 234.207 146.686Z" fill="white"/>
<path opacity="0.2" d="M142.505 169.695L135.586 217.426L193.371 216.159L202.858 169.903L142.505 169.695Z" stroke="white" stroke-miterlimit="10"/>
<path opacity="0.5" d="M249.865 219.749C249.03 220.127 247.062 221.126 246.779 222.695H117.764L115.121 222.673C115.683 221.728 116.187 220.75 116.631 219.745L249.865 219.749Z" fill="#18218A"/>
<path d="M138.324 254.242C139.204 253.421 140.031 252.452 140.288 251.276C140.545 250.1 140.042 248.685 138.917 248.25C137.659 247.766 136.311 248.628 135.291 249.525C134.272 250.421 133.101 251.416 131.768 251.227C132.454 250.603 132.968 249.812 133.259 248.93C133.549 248.049 133.607 247.107 133.426 246.196C133.367 245.82 133.208 245.467 132.965 245.175C132.266 244.418 130.997 244.747 130.163 245.338C127.519 247.229 126.764 250.834 126.745 254.094C126.477 252.918 126.703 251.692 126.696 250.486C126.688 249.279 126.36 247.944 125.344 247.293C124.711 246.953 124 246.785 123.282 246.809C122.085 246.764 120.752 246.885 119.936 247.762C118.92 248.851 119.181 250.678 120.068 251.878C120.956 253.077 122.296 253.829 123.531 254.658C124.523 255.25 125.368 256.058 126.005 257.022C126.08 257.156 126.142 257.298 126.19 257.445H133.69C135.372 256.592 136.931 255.514 138.324 254.242Z" fill="#94E2F3"/>
<path d="M295.085 260.604C295.777 260.039 296.282 259.276 296.532 258.417C296.72 257.547 296.35 256.507 295.519 256.19C294.59 255.834 293.597 256.477 292.846 257.131C292.094 257.786 291.229 258.527 290.244 258.387C290.75 257.927 291.129 257.344 291.344 256.693C291.558 256.043 291.601 255.348 291.467 254.677C291.425 254.398 291.307 254.137 291.127 253.92C290.61 253.368 289.677 253.606 289.058 254.041C287.094 255.425 286.546 258.096 286.535 260.502C286.339 259.635 286.505 258.731 286.497 257.854C286.49 256.976 286.248 255.963 285.5 255.501C285.036 255.252 284.516 255.128 283.99 255.142C283.106 255.108 282.124 255.199 281.52 255.845C280.764 256.647 280.965 257.998 281.618 258.871C282.271 259.745 283.261 260.309 284.175 260.921C284.907 261.358 285.532 261.954 286.002 262.665C286.058 262.764 286.103 262.868 286.138 262.975H291.671C292.911 262.343 294.059 261.545 295.085 260.604Z" fill="#94E2F3"/>
<path d="M319.633 272.636C320.325 272.071 320.829 271.308 321.079 270.45C321.268 269.58 320.898 268.539 320.067 268.222C319.138 267.866 318.145 268.509 317.393 269.164C316.642 269.818 315.777 270.559 314.791 270.419C315.298 269.959 315.677 269.376 315.891 268.726C316.106 268.075 316.148 267.38 316.015 266.709C315.972 266.43 315.855 266.169 315.675 265.952C315.157 265.4 314.225 265.638 313.605 266.073C311.641 267.458 311.094 270.128 311.083 272.534C310.886 271.668 311.052 270.764 311.045 269.886C311.037 269.008 310.796 267.995 310.048 267.533C309.584 267.284 309.063 267.16 308.537 267.174C307.653 267.14 306.672 267.231 306.067 267.878C305.312 268.679 305.512 270.03 306.165 270.904C306.819 271.777 307.808 272.341 308.722 272.954C309.455 273.39 310.079 273.986 310.55 274.697C310.605 274.796 310.651 274.9 310.686 275.008H316.219C317.458 274.375 318.607 273.577 319.633 272.636Z" fill="#94E2F3"/>
<path d="M248.66 247.35C248.66 247.35 247.342 248.069 246.741 243.999C246.364 241.351 245.265 235.893 244.543 232.348L244.453 231.898C244.659 231.833 244.862 231.758 245.061 231.671C245.061 231.671 240.861 215.407 241.821 211.806C242.78 208.205 241.821 201.752 241.821 201.752L239.302 193.256C239.302 193.256 233.063 191.1 230.665 190.502C228.266 189.905 221.548 185.714 221.548 185.714C221.663 185.848 221.772 185.988 221.873 186.134L221.605 185.971C221.115 185.512 220.672 185.005 220.283 184.458C221.623 183.03 222.491 181.223 222.768 179.284C223.664 177.581 224.087 175.669 223.993 173.746C223.898 171.824 223.29 169.962 222.232 168.356C222.64 167.844 222.951 167.262 223.149 166.639C223.229 166.353 223.264 166.057 223.251 165.761C223.295 165.286 223.192 164.81 222.957 164.395C222.722 163.981 222.366 163.648 221.937 163.442C221.65 163.323 221.343 163.263 221.032 163.266C220.722 163.27 220.416 163.336 220.132 163.461C219.599 163.703 219.18 164.157 218.598 164.278C217.628 164.479 216.797 163.7 216.034 163.121C214.849 162.236 213.434 161.711 211.959 161.608C211.319 161.536 210.671 161.622 210.071 161.858C209.501 162.181 208.976 162.576 208.508 163.034C206.778 164.43 204.353 164.819 202.182 165.579C201.766 165.723 201.306 165.958 201.23 166.336C201.214 166.411 201.214 166.488 201.23 166.563C201.212 166.659 201.22 166.758 201.253 166.85C197.204 167.531 193.243 170.61 193.243 170.61L192.578 171.227C192.361 171.109 192.114 171.057 191.868 171.078C191.621 171.099 191.387 171.191 191.192 171.344L189.855 172.396C189.613 172.585 189.449 172.857 189.394 173.159C189.338 173.461 189.395 173.774 189.553 174.037L179.775 183.115L179.564 183.312V183.278C179.564 183.278 172.011 189.024 172.011 193.09C172.011 196.029 174.277 197.841 175.512 198.624C174.404 199.667 173.567 200.966 173.072 202.406V202.444V202.497V202.538V202.584V202.622V202.663V202.701V202.739V202.773V202.807V202.837V202.871V202.898V202.939V202.977V203V203.023V203.189V203.234V203.325V203.389V203.454L173.042 203.62V203.688L173.023 203.802V203.847V203.957V204.036L172.997 204.188L172.963 204.377V204.415L172.936 204.573V204.649L172.906 204.823V204.868L172.872 205.065V205.152L172.785 205.648L172.74 205.916V205.962L172.691 206.238V206.276L172.642 206.555V206.578L172.589 206.873V206.938L172.536 207.229V207.293L172.487 207.581V207.615L172.43 207.94V208L172.302 208.727L172.237 209.105V209.162L172.173 209.54V209.566L172.034 210.323V210.387L171.966 210.765V210.818L171.818 211.616V211.651L171.743 212.055V212.089L171.592 212.914V212.967L171.516 213.375V213.406L171.358 214.249V214.294L171.278 214.711V214.741L171.116 215.596V215.63L171.036 216.046V216.08L170.345 216.935V216.972L170.262 217.385V217.407L170.092 218.247V218.27L170.009 218.678V218.701L169.843 219.503V219.537L169.764 219.915V219.949L169.601 220.706V220.732L169.522 221.111V221.148L169.363 221.863V221.882L169.288 222.219V222.253C169.235 222.48 169.183 222.699 169.133 222.911L169.058 223.221V223.248C169.007 223.454 168.958 223.652 168.91 223.842L168.839 224.114V224.144L168.771 224.405C168.468 225.54 168.204 226.296 168.015 226.474C167.824 226.675 167.674 226.911 167.573 227.17L167.543 227.246L167.513 227.329L167.487 227.412L167.362 227.526L167.335 227.613L167.313 227.692L167.29 227.783V227.866L167.271 227.957V228.04C167.271 228.101 167.261 228.161 167.241 228.222V228.297V228.399V228.479V228.581V228.66V228.763V228.842V228.944V229.02C167.241 229.145 167.241 229.266 167.241 229.398C167.241 229.421 167.241 229.443 167.241 229.47C167.241 229.496 167.241 229.534 167.241 229.568C167.241 229.602 167.241 229.617 167.241 229.64C167.241 229.663 167.241 229.704 167.241 229.735C167.241 229.765 167.241 229.78 167.241 229.807C167.241 229.833 167.241 229.867 167.241 229.897V229.965C167.241 229.996 167.241 230.026 167.241 230.056V230.117C167.241 230.172 167.241 230.226 167.241 230.279V230.877V230.96V231.199L168.374 231.543C168.374 231.543 168.944 231.857 169.824 232.265C169.7 236.082 169.348 241.249 168.393 244.411C166.263 244.521 161.002 244.744 160.05 244.362C158.85 243.881 151.172 242.686 153.574 248.19C154.578 250.497 156.765 252.237 158.963 253.485C158.691 253.575 158.413 253.647 158.132 253.701C156.176 254.079 155.632 254.733 155.707 255.407C155.568 256.541 157.494 257.809 157.652 257.888C157.894 258.009 166.048 259.325 167.97 258.724C169.892 258.122 177.687 256.689 177.687 256.689C177.687 256.689 177.687 256.602 177.687 256.451C177.687 256.451 177.581 254.098 177.287 251.866C178.17 251.738 179.133 251.62 180.07 251.548C180.19 252.114 180.438 252.645 180.794 253.101C181.15 253.556 181.605 253.924 182.124 254.177C187.283 256.825 188.964 253.22 188.964 253.22C188.964 253.22 195.939 254.563 199.837 253.599C200.244 253.977 200.592 254.245 200.837 254.427C202.102 255.339 205.509 255.963 209.319 256.008C210.334 256.108 211.357 256.079 212.363 255.921C214.045 255.81 215.713 255.548 217.348 255.138C221.937 253.947 222.945 249.672 223.164 247.732C223.346 247.679 223.474 247.49 223.542 247.134C223.633 246.94 223.686 246.731 223.701 246.518C223.801 245.639 223.965 244.77 224.192 243.915L229.856 244.233C232.387 248.833 234.622 252.49 234.622 252.49L238.459 252.01C236.753 250.642 235.257 249.028 234.022 247.221C232.103 244.35 232.103 230.578 232.103 230.578L232.319 222.192V222.279V221.875C232.674 224.36 235.487 231.569 235.804 231.675C236.035 231.751 236.261 231.819 236.484 231.883L236.688 232.42C238.289 236.672 242.353 247.55 242.64 249.268C243.018 251.424 257.996 252.26 261.353 251.182C264.71 250.104 248.66 247.35 248.66 247.35ZM195.157 199.72L189.666 207.981C187.695 204.577 185.64 201.445 183.782 199.372C188.654 199.535 194.27 199.709 195.157 199.72ZM194.323 178.538C194.536 178.639 194.772 178.679 195.006 178.652C195.24 178.626 195.463 178.536 195.648 178.391L196.117 178.013C196.356 177.827 196.52 177.561 196.579 177.263C196.638 176.966 196.588 176.657 196.438 176.394L196.717 176.118C198.651 175.79 200.559 175.326 202.427 174.729C202.498 176.437 202.977 178.103 203.825 179.586C203.992 180.536 204.302 181.454 204.746 182.31C203.885 182.238 202.948 182.189 202.053 182.196C201.271 182.18 200.489 182.229 199.716 182.344C196.838 182.824 196.475 188.089 196.475 188.089C196.475 188.089 190.693 190.124 187.219 190.196C186.779 190.198 186.341 190.133 185.92 190.003L185.569 189.98L186.041 188.687C186.041 188.687 185.837 188.751 185.501 188.819C185.609 188.655 185.722 188.489 185.841 188.32C188.039 185.162 191.845 181.092 194.323 178.546V178.538ZM182.442 242.444C181.999 243.202 181.602 243.985 181.252 244.789C179.889 245.054 178.031 245.201 177.045 244.358C176.6 243.993 176.041 243.796 175.466 243.802L175.489 243.756C176.169 242.451 176.747 239.528 177.2 236.502C179.398 236.502 181.486 234.66 181.486 234.66L184.254 235.609L184.356 235.802L184.424 235.927L184.534 236.131L184.602 236.26L184.711 236.46L184.783 236.589L184.893 236.785L184.964 236.914L185.07 237.107L185.142 237.235L185.251 237.428L185.323 237.553L185.433 237.742L185.501 237.863L185.61 238.052L185.678 238.17L185.784 238.355L185.852 238.472L185.961 238.658L186.026 238.764L186.135 238.945L186.199 239.051L186.309 239.233L186.366 239.327L186.479 239.512L186.52 239.581C186.717 239.902 186.898 240.208 187.083 240.496L187.11 240.538L187.215 240.704L187.261 240.776L187.355 240.927L187.408 241.007L187.495 241.143L187.548 241.23L187.627 241.355L187.684 241.442L187.759 241.559L187.812 241.642L187.88 241.748L187.933 241.831L187.997 241.93L188.05 242.013L188.11 242.104L188.163 242.183C186.273 242.495 184.352 242.583 182.442 242.444Z" fill="url(#paint0_linear_17_6)"/>
<path d="M260.023 250.501C256.749 251.556 242.13 250.735 241.779 248.609C241.499 246.919 237.538 236.278 235.974 232.118L235.347 230.453L242.95 228.812C242.95 228.812 243.229 230.147 243.614 232.05C244.317 235.522 245.378 240.882 245.756 243.454C246.341 247.437 247.644 246.733 247.644 246.733C247.644 246.733 263.286 249.445 260.023 250.501Z" fill="#FFBDC6"/>
<path d="M218.723 181.379C218.723 181.379 218.138 184.893 223.168 188.188C228.198 191.482 223.871 203.299 223.871 203.299L220.151 203.507C217.788 203.639 215.467 202.85 213.673 201.303C211.88 199.757 210.756 197.575 210.535 195.215C210.535 195.215 212.639 191.811 208.779 183.032L218.723 181.379Z" fill="#FFBDC6"/>
<path d="M196.985 177.056C196.985 177.056 189.746 184.125 186.381 188.997C185.982 189.562 185.617 190.151 185.289 190.76C182.834 195.446 177.124 187.828 179.099 185.196L180.463 183.921L193.59 171.666C193.59 171.666 202.597 164.638 207.155 169.676C211.714 174.714 196.985 177.056 196.985 177.056Z" fill="#FFBDC6"/>
<path d="M213.066 185.782C218.879 185.782 223.591 181.062 223.591 175.24C223.591 169.418 218.879 164.698 213.066 164.698C207.253 164.698 202.541 169.418 202.541 175.24C202.541 181.062 207.253 185.782 213.066 185.782Z" fill="#A66477"/>
<path d="M170.206 243.821C170.206 243.821 162.369 244.29 161.199 243.821C160.028 243.352 152.546 242.183 154.899 247.573C157.252 252.963 166.127 255.187 166.127 255.187L172.547 253.546L170.206 243.821Z" fill="#7679B4"/>
<path opacity="0.05" d="M170.206 243.821C170.206 243.821 162.369 244.29 161.199 243.821C160.028 243.352 152.546 242.183 154.899 247.573C157.252 252.963 166.127 255.187 166.127 255.187L172.547 253.546L170.206 243.821Z" fill="black"/>
<path d="M198.156 220.747L213.885 227.147L222.832 246.181C222.832 246.181 222.949 252.857 217.103 254.382C211.257 255.906 203.069 255.202 200.962 253.678C198.855 252.154 190.203 243.136 190.203 243.136L198.156 220.747Z" fill="#7679B4"/>
<path opacity="0.05" d="M197.087 220.747L210.702 225.858L218.447 241.09C218.447 241.09 218.549 246.434 213.489 247.652C208.428 248.87 201.34 248.307 199.516 247.089C197.691 245.871 190.203 238.65 190.203 238.65L197.087 220.747Z" fill="black"/>
<path d="M183.537 243.821C183.537 243.821 179.443 245.228 177.808 243.821C176.173 242.414 173.246 244.173 173.246 244.173L174.537 251.787C174.537 251.787 180.383 250.497 183.544 250.849L183.537 243.821Z" fill="#FFBDC6"/>
<path opacity="0.05" d="M183.537 243.821C183.537 243.821 179.443 245.228 177.808 243.821C176.173 242.414 173.246 244.173 173.246 244.173L174.537 251.787C174.537 251.787 180.383 250.497 183.544 250.849L183.537 243.821Z" fill="black"/>
<path d="M185.867 235.624L182.132 234.334C182.132 234.334 178.038 237.965 175.334 234.92C172.63 231.876 177.789 219.223 177.789 219.223L183.284 210.319L187.261 222.854L190.886 228.944L185.867 235.624Z" fill="#565388"/>
<path opacity="0.05" d="M185.867 235.624L182.132 234.334C182.132 234.334 178.038 237.965 175.334 234.92C172.63 231.876 177.789 219.223 177.789 219.223L183.284 210.319L187.261 222.854L190.886 228.944L185.867 235.624Z" fill="black"/>
<path d="M221.544 234.92L229.966 236.089L231.605 243.821L221.197 243.234L221.544 234.92Z" fill="#565388"/>
<path opacity="0.05" d="M221.544 234.92L229.966 236.089L231.605 243.821L221.197 243.234L221.544 234.92Z" fill="black"/>
<path opacity="0.1" d="M209.735 192.519C209.735 192.519 213.243 205.988 224.463 196.267L227.504 234.92C227.504 234.92 223.761 240.893 223.176 246.268C222.59 251.643 212.416 229.625 206.336 229.519C200.256 229.413 194.232 220.91 194.232 220.91L201.075 206.794L209.735 192.519Z" fill="black"/>
<path d="M209.852 192.167C209.852 192.167 213.36 205.636 224.581 195.915L227.621 234.569C227.621 234.569 223.878 240.541 223.293 245.916C222.707 251.291 212.533 229.273 206.453 229.167C200.373 229.061 194.349 220.558 194.349 220.558L201.192 206.442L209.852 192.167Z" fill="#F2F1F2"/>
<path opacity="0.1" d="M207.979 183.497C207.979 183.497 203.069 182.676 200.26 183.145C197.45 183.614 197.102 188.766 197.102 188.766C197.102 188.766 189.149 191.577 186.46 190.658C186.46 190.658 173.242 189.719 173.242 193.702C173.242 197.685 177.457 199.535 177.457 199.535C177.457 199.535 195.807 200.155 195.935 200.121C200.146 198.949 195.818 200.121 195.818 200.121L188.216 211.601L195.233 221.322L202.718 215.819C202.718 215.819 203.655 210.663 206.117 208.087C207.869 206.245 210.162 197.954 211.329 193.366C211.574 192.399 211.625 191.394 211.479 190.408C211.333 189.421 210.993 188.474 210.479 187.62L207.979 183.497Z" fill="black"/>
<path opacity="0.1" d="M186.381 188.997C185.982 189.562 185.617 190.151 185.289 190.76C182.834 195.446 177.124 187.828 179.099 185.196L180.463 183.921C179.964 189.965 184.878 189.322 186.381 188.997Z" fill="black"/>
<path opacity="0.1" d="M195.818 199.664H195.686C195.686 199.664 200.029 198.491 195.818 199.664Z" fill="black"/>
<path d="M207.628 183.497C207.628 183.497 202.718 182.676 199.908 183.145C197.099 183.614 196.751 188.766 196.751 188.766C196.751 188.766 188.798 191.577 186.109 190.658L186.577 189.368C186.577 189.368 179.447 191.592 180.263 184.084C180.263 184.084 172.895 189.704 172.895 193.687C172.895 197.67 177.105 199.535 177.105 199.535C177.105 199.535 195.456 200.155 195.584 200.121C199.795 198.949 195.467 200.121 195.467 200.121L187.865 211.601L194.882 221.322L202.367 215.819C202.367 215.819 203.303 210.663 205.766 208.087C207.518 206.245 209.81 197.954 210.977 193.366C211.223 192.399 211.274 191.394 211.128 190.408C210.982 189.421 210.642 188.474 210.128 187.62L207.628 183.497Z" fill="#565388"/>
<path opacity="0.1" d="M231.722 221.568V222.211C231.672 222 231.672 221.78 231.722 221.568Z" fill="black"/>
<path opacity="0.1" d="M243.614 232.065C241.129 232.832 238.473 232.855 235.974 232.133L235.347 230.468L242.95 228.827C242.95 228.827 243.225 230.173 243.614 232.065Z" fill="black"/>
<path opacity="0.1" d="M220.845 186.425C220.845 186.425 227.394 190.525 229.735 191.111C232.077 191.698 238.157 193.805 238.157 193.805L240.612 202.126C240.612 202.126 241.549 208.45 240.612 211.961C239.675 215.471 230.906 222.151 231.375 221.095L231.14 230.347C231.14 230.347 231.14 243.817 233.029 246.612C234.917 249.407 229.46 243.859 229.46 243.859C229.46 243.859 222.851 234.077 222.035 227.87C221.219 221.663 222.5 197.788 222.5 197.788L221.329 196.146C221.329 196.146 223.769 189.822 220.845 186.425Z" fill="black"/>
<path d="M221.197 186.425C221.197 186.425 227.745 190.525 230.087 191.111C232.428 191.698 238.508 193.805 238.508 193.805L240.963 202.126C240.963 202.126 241.9 208.45 240.963 211.961C240.027 215.471 244.12 231.407 244.12 231.407C244.12 231.407 240.344 233.154 235.113 231.407C234.762 231.289 231.254 222.155 231.714 221.099L231.48 230.351C231.48 230.351 231.48 243.821 233.369 246.616C234.573 248.383 236.031 249.963 237.696 251.303L233.954 251.772C233.954 251.772 223.183 234.1 222.364 227.904C221.544 221.708 222.832 197.799 222.832 197.799L221.661 196.157C221.661 196.157 224.12 189.822 221.197 186.425Z" fill="#565388"/>
<path d="M189.266 242.656C189.266 242.656 181.43 231.308 181.781 226.013C181.781 226.013 180.844 233.275 179.794 233.744C178.744 234.213 168.215 230.93 168.215 230.93C168.215 230.93 167.747 227.526 168.918 226.361C170.089 225.196 173.714 203.518 173.714 203.518C173.714 203.518 175.002 197.663 180.614 197.311C186.226 196.959 198.858 225.54 198.858 225.54C198.858 225.54 200.728 242.656 189.266 242.656Z" fill="#7679B4"/>
<path d="M170.791 227.189C170.791 227.189 171.025 243.586 168.102 246.283C165.179 248.98 176.641 250.383 176.641 250.383C176.641 250.383 174.654 246.4 176.29 243.238C177.925 240.076 178.979 227.189 178.979 227.189H170.791Z" fill="#FFBDC6"/>
<path opacity="0.05" d="M171.373 246.06C171.373 246.06 170.202 243.132 167.045 245.474C167.045 245.474 164.239 252.033 159.325 252.971C154.412 253.909 158.623 256.719 158.857 256.836C159.091 256.954 167.045 258.243 168.914 257.657C170.783 257.071 178.386 255.668 178.386 255.668C178.386 255.668 178.034 247.936 176.875 247.346C175.716 246.756 176.286 250.852 171.373 246.06Z" fill="black"/>
<path d="M171.373 246.283C171.373 246.283 170.202 243.356 167.045 245.697C167.045 245.697 164.239 252.256 159.325 253.194C154.412 254.132 158.623 256.942 158.857 257.06C159.091 257.177 167.045 258.467 168.914 257.88C170.783 257.294 178.389 255.895 178.389 255.895C178.389 255.895 178.038 248.163 176.879 247.573C175.719 246.983 176.286 251.083 171.373 246.283Z" fill="#7679B4"/>
<path d="M193.394 172.679C194.381 174.216 195.445 175.702 196.581 177.131C196.689 177.258 196.771 177.406 196.821 177.565C196.871 177.724 196.888 177.892 196.871 178.058C196.855 178.224 196.805 178.385 196.724 178.531C196.644 178.678 196.535 178.806 196.404 178.909L195.947 179.268C195.816 179.371 195.666 179.446 195.506 179.489C195.346 179.532 195.179 179.543 195.015 179.52C194.85 179.497 194.692 179.441 194.55 179.355C194.408 179.27 194.284 179.157 194.187 179.023C193.163 177.602 191.882 176.387 190.41 175.44C190.242 175.336 190.102 175.192 190.001 175.021C189.9 174.851 189.841 174.658 189.83 174.46C189.819 174.262 189.856 174.064 189.937 173.883C190.018 173.702 190.142 173.544 190.297 173.421L191.6 172.392C191.734 172.286 191.888 172.209 192.054 172.166C192.219 172.123 192.391 172.115 192.56 172.142C192.728 172.169 192.889 172.23 193.033 172.323C193.177 172.415 193.299 172.537 193.394 172.679Z" fill="#565388"/>
<path opacity="0.1" d="M220.079 185.54C218.568 183.41 218.855 181.723 218.855 181.723L208.904 183.38C209.595 184.925 210.163 186.523 210.603 188.157C212.27 188.645 214.039 188.658 215.712 188.196C217.386 187.734 218.898 186.814 220.079 185.54Z" fill="black"/>
<path d="M213.126 188.18C218.293 188.18 222.481 183.985 222.481 178.811C222.481 173.636 218.293 169.441 213.126 169.441C207.96 169.441 203.772 173.636 203.772 178.811C203.772 183.985 207.96 188.18 213.126 188.18Z" fill="#FFBDC6"/>
<path opacity="0.1" d="M209.01 173.927C209.893 173.78 210.679 173.262 211.574 173.216C212.707 173.16 213.73 173.886 214.527 174.635C215.324 175.384 216.098 176.239 217.194 176.564C217.893 176.728 218.615 176.777 219.331 176.708C219.729 176.728 220.124 176.628 220.464 176.42C220.635 176.261 220.765 176.062 220.842 175.841C221.147 175.137 221.302 174.376 221.296 173.608C221.29 172.84 221.124 172.082 220.808 171.382C220.719 171.237 220.682 171.066 220.702 170.898C220.736 170.797 220.791 170.706 220.864 170.629C221.62 169.736 222.417 168.844 222.722 167.762C223.028 166.68 222.654 165.349 221.54 164.868C221.262 164.748 220.963 164.687 220.66 164.687C220.358 164.687 220.058 164.748 219.78 164.868C219.259 165.107 218.855 165.549 218.27 165.666C217.322 165.863 216.51 165.099 215.77 164.532C214.616 163.666 213.238 163.151 211.801 163.049C211.172 162.977 210.535 163.061 209.946 163.295C209.397 163.607 208.889 163.988 208.436 164.43C206.748 165.795 204.383 166.177 202.269 166.922C201.864 167.066 201.415 167.278 201.34 167.679C201.264 168.08 201.717 168.484 202.17 168.658C202.624 168.832 203.145 168.946 203.447 169.298C203.825 169.752 203.704 170.395 203.772 170.966C203.911 172.101 204.905 172.717 206.004 173.046C206.914 173.337 208.107 174.079 209.01 173.927Z" fill="black"/>
<path d="M209.01 173.693C209.893 173.545 210.679 173.027 211.574 172.982C212.707 172.925 213.73 173.651 214.527 174.4C215.324 175.149 216.098 176.004 217.194 176.329C217.893 176.494 218.615 176.542 219.331 176.473C219.729 176.493 220.124 176.393 220.464 176.186C220.635 176.027 220.765 175.828 220.842 175.607C221.147 174.902 221.302 174.142 221.296 173.373C221.29 172.605 221.124 171.847 220.808 171.147C220.719 171.002 220.682 170.832 220.702 170.663C220.736 170.563 220.791 170.471 220.864 170.395C221.62 169.502 222.417 168.609 222.722 167.527C223.028 166.446 222.654 165.114 221.54 164.634C221.262 164.514 220.963 164.452 220.66 164.452C220.358 164.452 220.058 164.514 219.78 164.634C219.259 164.872 218.855 165.315 218.27 165.432C217.322 165.629 216.51 164.865 215.77 164.297C214.628 163.452 213.27 162.948 211.853 162.845C211.225 162.772 210.588 162.857 209.999 163.091C209.449 163.403 208.942 163.784 208.489 164.225C206.8 165.591 204.436 165.973 202.321 166.718C201.917 166.862 201.468 167.074 201.392 167.474C201.317 167.875 201.77 168.28 202.223 168.454C202.676 168.628 203.198 168.742 203.5 169.093C203.877 169.547 203.757 170.19 203.825 170.761C203.964 171.896 204.958 172.513 206.056 172.842C206.914 173.103 208.107 173.844 209.01 173.693Z" fill="#A66477"/>
<path opacity="0.05" d="M201.46 218.765C201.46 218.765 208.141 219.9 209.81 223.512C211.48 227.125 221.518 236.899 221.518 236.899" fill="black"/>
<g opacity="0.05">
<path opacity="0.05" d="M180.028 232.927C178.975 233.396 168.45 230.117 168.45 230.117C168.32 229.097 168.332 228.065 168.484 227.049C167.879 228.509 168.215 230.938 168.215 230.938C168.215 230.938 178.741 234.217 179.794 233.748C180.142 233.593 180.478 232.693 180.772 231.554C180.538 232.284 180.289 232.821 180.028 232.927Z" fill="black"/>
<path opacity="0.05" d="M173.933 202.799C173.847 203.037 173.774 203.28 173.714 203.526C173.714 203.526 171.176 218.705 169.662 224.33C171.063 219.764 173.707 204.15 173.933 202.799Z" fill="black"/>
<path opacity="0.05" d="M189.5 241.831C189.5 241.831 181.664 230.484 182.015 225.188C182.015 225.188 181.932 225.846 181.785 226.777C182.14 232.314 189.266 242.656 189.266 242.656C194.716 242.656 197.151 238.79 198.205 234.731C197.042 238.469 194.583 241.831 189.5 241.831Z" fill="black"/>
</g>
<path d="M169.314 231.274C169.314 231.274 176.46 235.216 179.035 233.339C181.611 231.463 179.972 228.536 179.972 228.536L177.982 225.256H171.316L169.095 229.122L169.314 231.274Z" fill="#7679B4"/>
<path d="M218.04 246.752C218.04 246.752 218.508 237.383 206.578 237.5C194.648 237.617 206.109 237.5 206.109 237.5C206.109 237.5 201.43 236.093 195.584 239.391C189.738 242.69 183.069 241.967 183.069 241.967C183.069 241.967 177.687 250.871 182.717 253.447C187.748 256.023 189.383 252.49 189.383 252.49C189.383 252.49 199.674 254.48 202.016 251.787C203.687 253.446 205.809 254.576 208.116 255.038C210.424 255.499 212.816 255.271 214.996 254.382C214.996 254.382 220.846 251.787 218.04 246.752Z" fill="#7679B4"/>
</g>
<defs>
<linearGradient id="paint0_linear_17_6" x1="207.454" y1="258.875" x2="207.454" y2="161.6" gradientUnits="userSpaceOnUse">
<stop stop-color="#808080" stop-opacity="0.25"/>
<stop offset="0.54" stop-color="#808080" stop-opacity="0.12"/>
<stop offset="1" stop-color="#808080" stop-opacity="0.1"/>
</linearGradient>
<clipPath id="clip0_17_6">
<rect width="374" height="275" fill="white"/>
</clipPath>
</defs>
</svg>
